<svg xmlns="http://www.w3.org/2000/svg" width="33.443" height="17" viewBox="0 0 33.443 17"><path d="M5.206,11.487a2.526,2.526,0,0,1-.215-.272c-.158-.218-.308-.444-.449-.67L3.827,9.416a1.984,1.984,0,0,1-.411-1.04A.759.759,0,0,1,3.9,7.633c-.024-.427-.041-.86-.041-1.29,0-.253,0-.512.014-.762a2.136,2.136,0,0,1,.087-.474,2.722,2.722,0,0,1,1.214-1.54,3.944,3.944,0,0,1,.656-.3c.416-.152.215-.789.672-.8A5.94,5.94,0,0,1,10,4.1a2.572,2.572,0,0,1,.7,1.755l-.044,1.87a.528.528,0,0,1,.386.384,1.6,1.6,0,0,1-.2.985h0c0,.016-.014.016-.014.03l-.816,1.342c-.185.3-.376.612-.591.9-.253.34-.463.272-.245.6a2.392,2.392,0,0,0,.346.359c-1.562.694-2.79,1.878-2.79,4.668H0c0-4.259,3.72-2.9,5.274-5.046C5.454,11.672,5.408,11.7,5.206,11.487Zm9.49-.4c-.493-.435-1.11-.816-1.192-1.723H13.45a.7.7,0,0,1-.348-.093.955.955,0,0,1-.384-.465c-.177-.408-.318-1.478.128-1.785l-.084-.054v-.12c-.016-.215-.022-.476-.027-.751-.016-1.007-.035-2.226-.846-2.471l-.346-.106.229-.272A13.134,13.134,0,0,1,13.8,1.186,5.19,5.19,0,0,1,16.125.034a2.83,2.83,0,0,1,2.283.64,4.082,4.082,0,0,1,.612.615,2.6,2.6,0,0,1,1.829,1.07,3.674,3.674,0,0,1,.6,1.2,4.183,4.183,0,0,1,.161,1.361,3.266,3.266,0,0,1-.95,2.21.724.724,0,0,1,.3.076.758.758,0,0,1,.272.9c-.087.272-.2.593-.3.86-.128.362-.313.43-.675.392-.016.885-.664,1.246-1.217,1.761,1.361,2.52,6.646.857,6.646,5.868H8.023c0-5.01,5.171-3.266,6.668-5.9Zm9.86.593a3.143,3.143,0,0,1-.207-.256c-.15-.21-.3-.427-.433-.648l-.689-1.089a1.905,1.905,0,0,1-.4-1,.732.732,0,0,1,.468-.716c-.024-.411-.041-.83-.041-1.244V5.986a1.968,1.968,0,0,1,.082-.455,2.621,2.621,0,0,1,1.17-1.486,3.6,3.6,0,0,1,.637-.3c.4-.147.207-.762.648-.77a5.751,5.751,0,0,1,3.383,1.57,2.479,2.479,0,0,1,.675,1.693l-.044,1.8a.5.5,0,0,1,.373.37,1.535,1.535,0,0,1-.193.95h0s-.014,0-.014.027l-.784,1.3c-.18.291-.362.591-.569.865-.248.327-.449.272-.24.582,1.5,2.066,5.062.762,5.062,4.869h-6.5c0-2.648-1.132-3.862-2.594-4.575a2.416,2.416,0,0,0,.256-.294c.171-.253.128-.234-.068-.441Z" transform="translate(0 0.002)" fill="#f8f6f6"/></svg>