<svg xmlns="http://www.w3.org/2000/svg" width="27" height="19.509" viewBox="0 0 27 19.509"><path d="M4.632,18.546a.578.578,0,1,1-.879.751A14.478,14.478,0,0,1,0,9.731,14.663,14.663,0,0,1,3.92.189.583.583,0,0,1,4.735.134.583.583,0,0,1,4.79.949,13.472,13.472,0,0,0,1.154,9.738a13.356,13.356,0,0,0,3.478,8.808Zm3.019-2.808a.577.577,0,1,1-.863.767A10.055,10.055,0,0,1,3.918,9.7,10.075,10.075,0,0,1,7.009,2.979a.577.577,0,1,1,.839.791A8.981,8.981,0,0,0,5.065,9.716a8.977,8.977,0,0,0,2.577,6.031l.009-.009Zm2.672-2.672a.574.574,0,0,1-.894.718A6.483,6.483,0,0,1,7.846,9.722,6.289,6.289,0,0,1,9.4,5.691a.574.574,0,1,1,.894.718,5.24,5.24,0,0,0-1.305,3.3,5.339,5.339,0,0,0,1.321,3.335l.009.018ZM23.242,19.3a.578.578,0,0,1-.879-.751,13.323,13.323,0,0,0,3.478-8.806A13.5,13.5,0,0,0,22.2.947.584.584,0,0,1,22.26.132a.584.584,0,0,1,.815.055A14.668,14.668,0,0,1,27,9.729,14.47,14.47,0,0,1,23.242,19.3Zm-3.028-2.8a.577.577,0,1,1-.863-.767A8.94,8.94,0,0,0,21.928,9.7a8.933,8.933,0,0,0-2.782-5.946.577.577,0,1,1,.839-.791,10.062,10.062,0,0,1,3.091,6.719,10.018,10.018,0,0,1-2.87,6.807l.007.009Zm-2.641-2.711a.574.574,0,1,1-.894-.718A5.3,5.3,0,0,0,18,9.733a5.174,5.174,0,0,0-1.305-3.3.574.574,0,0,1,.894-.718,6.306,6.306,0,0,1,1.558,4.032A6.485,6.485,0,0,1,17.565,13.8l.009-.018Zm-4.087-1.914a3.241,3.241,0,0,1-.562-.048,2.218,2.218,0,0,1-.8-.415c-.053-.044-.105-.09-.154-.138a2.151,2.151,0,0,1-.633-1.534A2.188,2.188,0,0,1,11.968,8.2,2.151,2.151,0,0,1,13.5,7.571a2.188,2.188,0,0,1,1.534.633,2.171,2.171,0,0,1,.424,2.461,2.057,2.057,0,0,1-1.973,1.208Z" transform="translate(0.002 0.009)" fill="#f8f6f6"/></svg>