<svg xmlns="http://www.w3.org/2000/svg" width="25.568" height="21.5" viewBox="0 0 25.568 21.5"><g transform="translate(-2.5 -9.664)"><path d="M20.992,19.439a.315.315,0,1,1,.629,0v.3A2.5,2.5,0,0,1,23.8,22.218a.315.315,0,0,1-.629,0,1.867,1.867,0,0,0-3.735,0c0,1.414.97,1.645,1.94,1.875,1.212.288,2.424.577,2.424,2.488a2.5,2.5,0,0,1-2.18,2.477v.3a.315.315,0,0,1-.629,0v-.3a2.5,2.5,0,0,1-2.184-2.478.315.315,0,1,1,.629,0,1.867,1.867,0,1,0,3.735,0c0-1.414-.97-1.645-1.94-1.875-1.212-.288-2.424-.577-2.424-2.487a2.5,2.5,0,0,1,2.182-2.476v-.3ZM15.466,20.98l.779.465a.314.314,0,0,1,.092.071A5.049,5.049,0,0,1,17.6,23.827a1.769,1.769,0,0,1-.1,1.059,1.308,1.308,0,0,1-.8.695,3.4,3.4,0,0,1-1.9-.048h0a.307.307,0,0,1-.08-.032l-.1-.061a6.765,6.765,0,1,0,.846-4.459Zm2.345-3.1q-.161.085-.316.18a7.427,7.427,0,0,0-2.567,2.6l-3.6-2.151-.019-.028a1.9,1.9,0,0,1-.371-1.35,1.73,1.73,0,0,1,.827-1.063h0l4.28.045,1.77,1.77ZM7.421,9.705a5.59,5.59,0,0,0-3.038,1.837A9.782,9.782,0,0,0,2.5,16.121a2.165,2.165,0,0,0,.648,1.51,4.19,4.19,0,0,0,1,.693,7.174,7.174,0,0,1-.523-1.536.316.316,0,0,1-.013-.115,9.182,9.182,0,0,1,1.373-4.185A12.038,12.038,0,0,1,7.42,9.7ZM22.2,17.059l-4.224-5.353-7.87-1.01a1.792,1.792,0,0,1-1.055-.371,2.426,2.426,0,0,1-.584-.66,11.973,11.973,0,0,0-2.948,3.154,8.559,8.559,0,0,0-1.275,3.86,6.257,6.257,0,0,0,.664,1.745,5.061,5.061,0,0,0,1.115,1.342L15,24.933a2.782,2.782,0,0,0,1.508.057.7.7,0,0,0,.432-.366,1.167,1.167,0,0,0,.049-.688A4.384,4.384,0,0,0,15.9,21.969l-4.96-2.96a.314.314,0,0,1-.1-.1l-.062-.094a2.482,2.482,0,0,1-.457-1.8,2.322,2.322,0,0,1,1.094-1.464l.09-.059a.311.311,0,0,1,.2-.048l4.479.047a.311.311,0,0,1,.219.092h0l2.017,2.014a7.367,7.367,0,0,1,2.9-.589,7.5,7.5,0,0,1,.895.054Z" fill="#f8f6f6" fill-rule="evenodd"/></g></svg>