<svg xmlns="http://www.w3.org/2000/svg" width="22.493" height="22.494" viewBox="0 0 22.493 22.494"><g transform="translate(-5.078 -6.441)"><path d="M17.789,19.1a2.88,2.88,0,1,1-2.88-2.88,2.817,2.817,0,0,1,1.3.314l-1.935,1.935a.892.892,0,0,0,0,1.263.892.892,0,0,0,1.263,0L17.476,17.8a2.817,2.817,0,0,1,.314,1.3Zm3.178,0a6.065,6.065,0,1,1-2.455-4.866L16.649,16.1a3.419,3.419,0,0,0-1.74-.473,3.475,3.475,0,1,0,3.007,1.732L19.776,15.5a6.015,6.015,0,0,1,1.192,3.6Zm3.774,0A9.843,9.843,0,1,1,21.2,11.553l-2.26,2.26A6.663,6.663,0,1,0,20.2,15.076l2.26-2.26a9.77,9.77,0,0,1,2.28,6.288ZM27.369,8.7l-1.544-.514L25.31,6.645a.3.3,0,0,0-.494-.116L22.288,9.056a.3.3,0,0,0-.084.253l.26,1.818L14.7,18.893a.3.3,0,0,0,.211.508.294.294,0,0,0,.211-.087l7.765-7.765,1.818.26a.308.308,0,0,0,.043,0,.3.3,0,0,0,.211-.087L27.484,9.2a.3.3,0,0,0-.116-.494Z" fill="#060606"/></g></svg>